HIERARCHY
ROOT hip
{
  OFFSET 0 0 0
  CHANNELS 6 Xposition Yposition Zposition Zrotation Yrotation Xrotation
  JOINT abdomen
  {
    OFFSET 0 20.6881 -0.73152
    CHANNELS 3 Zrotation Xrotation Yrotation
    JOINT chest
    {
      OFFSET 0 11.7043 -0.48768
      CHANNELS 3 Zrotation Xrotation Yrotation
      JOINT neck
      {
        OFFSET 0 22.1894 -2.19456
        CHANNELS 3 Zrotation Xrotation Yrotation
        JOINT head
        {
          OFFSET -0.24384 7.07133 1.2192
          CHANNELS 3 Zrotation Xrotation Yrotation
          JOINT leftEye
          {
            OFFSET 4.14528 8.04674 8.04672
            CHANNELS 3 Zrotation Xrotation Yrotation
            End Site
            {
              OFFSET 1 0 0
            }
          }
          JOINT rightEye
          {
            OFFSET -3.6576 8.04674 8.04672
            CHANNELS 3 Zrotation Xrotation Yrotation
            End Site
            {
              OFFSET 1 0 0
            }
          }
        }
      }
      JOINT rCollar
      {
        OFFSET -2.68224 19.2634 -4.8768
        CHANNELS 3 Zrotation Xrotation Yrotation
        JOINT rShldr
        {
          OFFSET -8.77824 -1.95073 1.46304
          CHANNELS 3 Zrotation Xrotation Yrotation
          JOINT rForeArm
          {
            OFFSET -28.1742 -1.7115 0.48768
            CHANNELS 3 Zrotation Xrotation Yrotation
            JOINT rHand
            {
              OFFSET -22.5879 0.773209 7.07136
              CHANNELS 3 Zrotation Xrotation Yrotation
              JOINT rThumb1
              {
                OFFSET -1.2192 -0.487915 3.41376
                CHANNELS 3 Zrotation Xrotation Yrotation
                JOINT rThumb2
                {
                  OFFSET -3.37035 -0.52449 3.41376
                  CHANNELS 3 Zrotation Xrotation Yrotation
                  End Site
                  {
                    OFFSET -1.78271 -1.18214 1.43049
                  }
                }
              }
              JOINT rIndex1
              {
                OFFSET -7.75947 0.938293 5.60832
                CHANNELS 3 Zrotation Xrotation Yrotation
                JOINT rIndex2
                {
                  OFFSET -2.54057 -0.884171 1.56538
                  CHANNELS 3 Zrotation Xrotation Yrotation
                  End Site
                  {
                    OFFSET -1.62519 -0.234802 1.16502
                  }
                }
              }
              JOINT rMid1
              {
                OFFSET -8.24714 1.18213 3.41376
                CHANNELS 3 Zrotation Xrotation Yrotation
                JOINT rMid2
                {
                  OFFSET -3.10165 -0.590103 1.0647
                  CHANNELS 3 Zrotation Xrotation Yrotation
                  End Site
                  {
                    OFFSET -2.48547 -0.328903 0.83742
                  }
                }
              }
              JOINT rRing1
              {
                OFFSET -8.82822 0.546677 1.51678
                CHANNELS 3 Zrotation Xrotation Yrotation
                JOINT rRing2
                {
                  OFFSET -2.60934 -0.819778 -0.0198488
                  CHANNELS 3 Zrotation Xrotation Yrotation
                  End Site
                  {
                    OFFSET -2.33842 -0.294052 0.168128
                  }
                }
              }
              JOINT rPinky1
              {
                OFFSET -8.27202 -0.0477905 -0.4584
                CHANNELS 3 Zrotation Xrotation Yrotation
                JOINT rPinky2
                {
                  OFFSET -1.82734 -0.647385 -0.700984
                  CHANNELS 3 Zrotation Xrotation Yrotation
                  End Site
                  {
                    OFFSET -1.69225 -0.51767 -0.607171
                  }
                }
              }
            }
          }
        }
      }
      JOINT lCollar
      {
        OFFSET 2.68224 19.2634 -4.8768
        CHANNELS 3 Zrotation Xrotation Yrotation
        JOINT lShldr
        {
          OFFSET 8.77824 -1.95073 1.46304
          CHANNELS 3 Zrotation Xrotation Yrotation
          JOINT lForeArm
          {
            OFFSET 28.1742 -1.7115 0.48768
            CHANNELS 3 Zrotation Xrotation Yrotation
            JOINT lHand
            {
              OFFSET 22.5879 0.773209 7.07136
              CHANNELS 3 Zrotation Xrotation Yrotation
              JOINT lThumb1
              {
                OFFSET 1.2192 -0.487915 3.41376
                CHANNELS 3 Zrotation Xrotation Yrotation
                JOINT lThumb2
                {
                  OFFSET 3.37035 -0.52449 3.41376
                  CHANNELS 3 Zrotation Xrotation Yrotation
                  End Site
                  {
                    OFFSET 1.78271 -1.18214 1.43049
                  }
                }
              }
              JOINT lIndex1
              {
                OFFSET 7.75947 0.938293 5.60832
                CHANNELS 3 Zrotation Xrotation Yrotation
                JOINT lIndex2
                {
                  OFFSET 2.54057 -0.884171 1.56538
                  CHANNELS 3 Zrotation Xrotation Yrotation
                  End Site
                  {
                    OFFSET 1.62519 -0.234802 1.16502
                  }
                }
              }
              JOINT lMid1
              {
                OFFSET 8.24714 1.18213 3.41376
                CHANNELS 3 Zrotation Xrotation Yrotation
                JOINT lMid2
                {
                  OFFSET 3.10165 -0.590103 1.0647
                  CHANNELS 3 Zrotation Xrotation Yrotation
                  End Site
                  {
                    OFFSET 2.48547 -0.328903 0.83742
                  }
                }
              }
              JOINT lRing1
              {
                OFFSET 8.82822 0.546677 1.51678
                CHANNELS 3 Zrotation Xrotation Yrotation
                JOINT lRing2
                {
                  OFFSET 2.60934 -0.819778 -0.0198488
                  CHANNELS 3 Zrotation Xrotation Yrotation
                  End Site
                  {
                    OFFSET 2.33842 -0.294052 0.168128
                  }
                }
              }
              JOINT lPinky1
              {
                OFFSET 8.27202 -0.0477905 -0.4584
                CHANNELS 3 Zrotation Xrotation Yrotation
                JOINT lPinky2
                {
                  OFFSET 1.82734 -0.647385 -0.700984
                  CHANNELS 3 Zrotation Xrotation Yrotation
                  End Site
                  {
                    OFFSET 1.69225 -0.51767 -0.607171
                  }
                }
              }
            }
          }
        }
      }
    }
  }
  JOINT rButtock
  {
    OFFSET -8.77824 4.35084 1.2192
    CHANNELS 3 Zrotation Xrotation Yrotation
    JOINT rThigh
    {
      OFFSET 0 -1.70687 -2.19456
      CHANNELS 3 Zrotation Xrotation Yrotation
      JOINT rShin
      {
        OFFSET 0 -36.8199 0.73152
        CHANNELS 3 Zrotation Xrotation Yrotation
        JOINT rFoot
        {
          OFFSET 0.73152 -45.1104 -5.12064
          CHANNELS 3 Zrotation Xrotation Yrotation
          End Site
          {
            OFFSET -1.1221 -3.69964 12.103
          }
        }
      }
    }
  }
  JOINT lButtock
  {
    OFFSET 8.77824 4.35084 1.2192
    CHANNELS 3 Zrotation Xrotation Yrotation
    JOINT lThigh
    {
      OFFSET 0 -1.70687 -2.19456
      CHANNELS 3 Zrotation Xrotation Yrotation
      JOINT lShin
      {
        OFFSET 0 -36.8199 0.73152
        CHANNELS 3 Zrotation Xrotation Yrotation
        JOINT lFoot
        {
          OFFSET -0.73152 -45.1104 -5.12064
          CHANNELS 3 Zrotation Xrotation Yrotation
          End Site
          {
            OFFSET 1.1221 -3.69964 12.103
          }
        }
      }
    }
  }
}
MOTION
Frames:	4
Frame Time:	0.00833333
57.1755 85.1987 96.3872 0.0 0.0 0.0 0.589732 -0.00310819 0.0168534 0.162771 -0.00479473 0.0282028 -6.94027e-15 0.0 1.55301e-16 -2.04655e-14 3.18055e-15 4.81432e-16 -0.0 0.0 0.0 -0.0 0.0 0.0 -3.38074e-15 6.21202e-18 2.48481e-16 -7.04217e-14 1.42876e-16 2.38542e-15 -1.22591e-12 3.70137e-13 2.22639e-14 -1.40617e-11 -3.48842e-13 3.435e-13 -3.31678e-11 4.3958e-14 8.07861e-13 -5.72937e-11 7.63333e-14 1.38831e-12 -3.31636e-11 4.13472e-14 8.015e-13 7.73091 5.47488 0.417314 -3.31689e-11 4.35338e-14 8.07861e-13 2.90554 0.965183 0.102902 -3.31657e-11 4.35338e-14 8.09451e-13 10.2786 0.731801 0.0259123 -3.31752e-11 4.6118e-14 8.17403e-13 2.22167 -0.733487 -0.20892 -3.57695e-15 5.82377e-18 -1.49089e-16 -7.31396e-14 3.60297e-16 7.95139e-16 -1.23192e-12 -3.63378e-13 5.725e-14 -1.40629e-11 3.84276e-13 3.27597e-13 -3.31742e-11 4.39326e-14 8.07861e-13 -5.72866e-11 7.63333e-14 1.4074e-12 -3.31756e-11 4.49253e-14 8.17403e-13 -7.73091 5.47488 -0.417314 -3.31732e-11 4.3832e-14 8.11041e-13 -2.90554 0.965183 -0.102902 -3.31745e-11 4.36332e-14 8.10246e-13 -10.2786 0.731801 -0.0259123 -3.31676e-11 4.6118e-14 8.015e-13 -2.22167 -0.733487 0.20892 -2.03217e-16 0.0 -3.88251e-19 0.942569 -4.57989 -0.079118 -0.00186681 2.74409 -0.00695513 -0.499317 1.83607 0.0942926 2.03217e-16 0.0 3.88251e-19 -0.0446385 -2.31105 0.0215228 0.00817106 -1.36559 0.0698356 0.491021 3.6768 -0.130676
61.9943 83.0035 90.382 -12.9335 88.4727 -7.3388 1.20416 -2.50018 2.17158 0.107453 -0.187528 0.632531 2.03935 2.31473 2.65435 -3.5502 -3.5032 4.7373 -0.0 0.0 0.0 -0.0 0.0 0.0 4.31525e-15 -1.22491e-13 3.63555e-14 5.2896 -18.1291 -4.65096 -7.34214 -4.33397 10.1785 0.896048 -21.2804 -2.296 -2.29158e-10 -9.05831e-10 -5.04767e-10 -3.58466e-10 -1.25785e-09 -8.79421e-10 -2.29153e-10 -9.05827e-10 -5.04774e-10 7.73091 5.47488 0.417314 -2.29159e-10 -9.05833e-10 -5.04767e-10 2.90554 0.965183 0.102902 -2.29156e-10 -9.0583e-10 -5.04763e-10 10.2786 0.731801 0.0259123 -2.29166e-10 -9.05831e-10 -5.04757e-10 2.22167 -0.733487 -0.20892 4.18074e-15 -1.2249e-13 3.59987e-14 -4.96145 -17.4099 1.04506 5.51028 -2.82874 -8.2243 -1.23234 25.085 -2.41429 -4.34111e-10 -1.61779e-09 1.37435e-10 -7.26019e-10 -2.83257e-09 2.65695e-10 -4.34113e-10 -1.61779e-09 1.3744e-10 -7.73091 5.47488 -0.417314 -4.34109e-10 -1.61779e-09 1.37436e-10 -2.90554 0.965183 -0.102902 -4.34112e-10 -1.6178e-09 1.37435e-10 -10.2786 0.731801 -0.0259123 -4.34105e-10 -1.61779e-09 1.37425e-10 -2.22167 -0.733487 0.20892 -2.03217e-16 0.0 -3.88251e-19 3.47019 -8.18183 1.72201 0.0885056 12.1463 0.255361 -2.01434 -3.63515 -8.56041 2.03217e-16 0.0 3.88251e-19 -1.20849 -12.9989 2.83887 -0.0172447 10.232 -0.109957 0.955275 0.952955 4.39052
61.9613 83.0067 90.3368 -11.3395 88.4041 -5.773 2.05134 -5.12934 4.46958 0.0509096 -0.384603 1.27345 3.95893 4.73173 5.4859 -6.65526 -7.08364 9.83214 -0.0 0.0 0.0 -0.0 0.0 0.0 1.32629e-14 -2.46218e-13 7.53549e-14 6.97499 -36.857 -11.3966 -13.4516 -8.45873 21.1192 -0.651741 -43.649 -6.08778 -4.47968e-10 -1.92576e-09 -1.06104e-09 -6.95286e-10 -2.68122e-09 -1.84871e-09 -4.47962e-10 -1.92575e-09 -1.06105e-09 7.73091 5.47488 0.417314 -4.47968e-10 -1.92577e-09 -1.06104e-09 2.90554 0.965183 0.102902 -4.47965e-10 -1.92576e-09 -1.06103e-09 10.2786 0.731801 0.0259123 -4.47977e-10 -1.92577e-09 -1.06103e-09 2.22167 -0.733487 -0.20892 1.31949e-14 -2.46216e-13 7.50412e-14 -9.37385 -35.7937 2.52588 10.462 -5.6251 -16.9825 1.01857 51.4359 -7.22681 -8.74786e-10 -3.4028e-09 2.89914e-10 -1.4609e-09 -5.95698e-09 5.59985e-10 -8.74789e-10 -3.4028e-09 2.89913e-10 -7.73091 5.47488 -0.417314 -8.74784e-10 -3.4028e-09 2.89913e-10 -2.90554 0.965183 -0.102902 -8.74787e-10 -3.4028e-09 2.89911e-10 -10.2786 0.731801 -0.0259123 -8.74779e-10 -3.4028e-09 2.899e-10 -2.22167 -0.733487 0.20892 -2.03217e-16 0.0 -3.88251e-19 6.39181 -11.9722 3.66902 0.0835928 22.0846 0.562193 -5.40505 -9.0511 -17.9085 2.03217e-16 0.0 3.88251e-19 -1.19872 -24.2023 6.21725 0.0401854 22.4926 -0.320835 1.91142 -1.8977 9.17109
61.913 83.0059 90.3039 -13.0969 88.3843 -7.5137 2.99922 -7.45161 6.53021 0.00837967 -0.552743 1.84126 5.47299 6.8844 8.01471 -8.90895 -10.2205 14.4189 -0.0 0.0 0.0 -0.0 0.0 0.0 1.97072e-14 -3.67485e-13 1.08569e-13 2.36051 -52.4627 -22.1127 -17.5755 -11.3611 31.1229 -7.65775 -63.1646 -14.3368 -6.2114e-10 -2.71758e-09 -1.51592e-09 -9.6081e-10 -3.7737e-09 -2.64104e-09 -6.21133e-10 -2.71756e-09 -1.51593e-09 7.73091 5.47488 0.417314 -6.21139e-10 -2.71759e-09 -1.51592e-09 2.90554 0.965183 0.102902 -6.21136e-10 -2.71758e-09 -1.51591e-09 10.2786 0.731801 0.0259123 -6.21149e-10 -2.71759e-09 -1.51591e-09 2.22167 -0.733487 -0.20892 1.96961e-14 -3.67482e-13 1.08294e-13 -11.9682 -52.1371 4.87767 14.1596 -7.78828 -24.8876 16.781 73.945 -24.3964 -1.23598e-09 -4.85347e-09 4.10689e-10 -2.06348e-09 -8.49785e-09 7.9427e-10 -1.23599e-09 -4.85347e-09 4.10684e-10 -7.73091 5.47488 -0.417314 -1.23598e-09 -4.85347e-09 4.10686e-10 -2.90554 0.965183 -0.102902 -1.23599e-09 -4.85347e-09 4.10684e-10 -10.2786 0.731801 -0.0259123 -1.23598e-09 -4.85346e-09 4.10672e-10 -2.22167 -0.733487 0.20892 -2.03217e-16 0.0 -3.88251e-19 9.2266 -15.3299 5.46622 -0.0263355 30.948 0.889465 -9.92802 -13.2047 -26.5729 2.03217e-16 0.0 3.88251e-19 0.167604 -34.015 9.97519 0.183087 33.426 -0.556265 3.16408 -4.36342 13.4703
